HIERARCHY
ROOT Hips
{
	OFFSET 0.000000 0.000000 0.000000 
	CHANNELS 6 Xposition Yposition Zposition Zrotation Yrotation Xrotation
	JOINT LeftUpLeg
	{
		OFFSET 1.363060 -1.794630 0.839290 
		CHANNELS 3 Zrotation Yrotation Xrotation
		JOINT LeftLeg
		{
			OFFSET 2.448110 -6.726130 0.000000 
			CHANNELS 3 Zrotation Yrotation Xrotation
			JOINT LeftFoot
			{
				OFFSET 2.562200 -7.039590 0.000000 
				CHANNELS 3 Zrotation Yrotation Xrotation
				JOINT LeftToeBase
				{
					OFFSET 0.157640 -0.433110 2.322550 
					CHANNELS 3 Zrotation Yrotation Xrotation
					End Site
					{
						OFFSET 0.000000 0.000000 0.000000 
					}
				}
			}
		}
	}
	JOINT RightUpLeg
	{
		OFFSET -1.305520 -1.794630 0.839290 
		CHANNELS 3 Zrotation Yrotation Xrotation
		JOINT RightLeg
		{
			OFFSET -2.542530 -6.985550 0.000000 
			CHANNELS 3 Zrotation Yrotation Xrotation
			JOINT RightFoot
			{
				OFFSET -2.568260 -7.056230 0.000000 
				CHANNELS 3 Zrotation Yrotation Xrotation
				JOINT RightToeBase
				{
					OFFSET -0.164730 -0.452590 2.363150 
					CHANNELS 3 Zrotation Yrotation Xrotation
					End Site
					{
						OFFSET 0.000000 0.000000 0.000000 
					}
				}
			}
		}
	}
	JOINT Spine
	{
		OFFSET 0.028270 2.035590 -0.193380 
		CHANNELS 3 Zrotation Yrotation Xrotation
		JOINT Spine1
		{
			OFFSET 0.056720 2.048850 -0.042750 
			CHANNELS 3 Zrotation Yrotation Xrotation
			JOINT Neck1
			{
				OFFSET -0.054170 1.746240 0.172020 
				CHANNELS 3 Zrotation Yrotation Xrotation
				JOINT Head
				{
					OFFSET 0.104070 1.761360 -0.123970 
					CHANNELS 3 Zrotation Yrotation Xrotation
					End Site
					{
						OFFSET 0.000000 0.000000 0.000000 
					}
				}
			}
			JOINT LeftArm
			{
				OFFSET 3.362410 1.200890 -0.311210 
				CHANNELS 3 Zrotation Yrotation Xrotation
				JOINT LeftForeArm
				{
					OFFSET 4.983000 -0.000000 -0.000000 
					CHANNELS 3 Zrotation Yrotation Xrotation
					JOINT LeftHand
					{
						OFFSET 3.483560 -0.000000 -0.000000 
						CHANNELS 3 Zrotation Yrotation Xrotation
						JOINT LeftHandIndex1
						{
							OFFSET 0.715260 -0.000000 -0.000000 
							CHANNELS 3 Zrotation Yrotation Xrotation
							End Site
							{
								OFFSET 0.000000 0.000000 0.000000 
							}
						}
					}
				}
			}
			JOINT RightArm
			{
				OFFSET -3.136600 1.374050 -0.404650 
				CHANNELS 3 Zrotation Yrotation Xrotation
				JOINT RightForeArm
				{
					OFFSET -5.241900 -0.000000 -0.000000 
					CHANNELS 3 Zrotation Yrotation Xrotation
					JOINT RightHand
					{
						OFFSET -3.444170 -0.000000 -0.000000 
						CHANNELS 3 Zrotation Yrotation Xrotation
						JOINT RightHandIndex1
						{
							OFFSET -0.622530 -0.000000 -0.000000 
							CHANNELS 3 Zrotation Yrotation Xrotation
							End Site
							{
								OFFSET 0.000000 0.000000 0.000000 
							}
						}
					}
				}
			}
		}
	}
}
MOTION
Frames: 6
Frame Time: 0.041667
9.824592 17.880403 49.352447 -177.151136 -2.673723 -177.986450 -12.769788 -15.339808 -8.269989 -2.048009 8.518356 24.177045 -1.797810 7.926610 -1.880243 4.924300 -13.298000 -40.494400 27.740057 10.228906 -3.920281 2.606579 -7.001956 21.925070 5.606894 -21.216565 -15.012335 -0.025400 -1.029100 2.828800 3.626274 2.415565 3.167012 -5.059113 0.927571 -11.760417 14.577465 -3.224467 11.321420 2.843700 -1.154800 4.125600 -89.758644 8.485173 20.297750 28.233673 -28.559793 -8.445764 1.218817 0.951229 10.412325 -7.125000 0.000000 0.000000 86.510699 -7.845106 28.811575 -24.696345 28.096865 -7.524024 1.028406 0.229225 13.441791 7.125000 0.000000 0.000000 
9.821302 17.870651 49.348334 -177.151628 -2.581489 -178.076674 -12.824337 -15.228591 -8.294647 -2.004166 8.585942 24.393855 -1.732556 7.780217 -2.047798 4.931600 -13.306300 -40.526200 27.705833 9.976575 -4.121047 2.532121 -7.136979 22.317026 5.491507 -20.907281 -15.125037 -0.013700 -0.754800 2.074400 3.707428 2.355205 3.350471 -5.036370 0.909301 -11.833634 14.435366 -3.460153 11.010064 2.798800 -1.298500 4.039000 -89.652551 8.460183 20.286804 28.362657 -28.692096 -8.496555 1.266480 0.892698 9.713253 -7.125000 0.000000 0.000000 86.297377 -7.735974 28.846310 -24.760109 28.175447 -7.561521 1.024412 0.234375 13.269233 7.125000 0.000000 0.000000 
9.817660 17.860898 49.341049 -177.165749 -2.492279 -178.037328 -12.848295 -15.112042 -8.404605 -1.978349 8.637888 24.533042 -1.776274 7.884781 -2.174415 5.014700 -13.400400 -40.886300 27.651278 9.738631 -4.432150 2.459990 -7.268870 22.674709 5.329332 -20.416213 -15.047276 -0.016800 -0.836100 2.298100 3.540832 2.361969 3.396011 -5.118791 0.907782 -11.843140 14.440045 -3.655224 10.707624 2.795500 -1.416500 3.941900 -89.503035 8.588597 20.357897 28.735772 -29.071777 -8.681326 1.301619 0.817392 8.783373 -7.125000 0.000000 0.000000 86.259457 -7.758125 28.900025 -24.852584 28.286678 -7.618113 1.016120 0.253423 12.807832 7.125000 0.000000 0.000000 
9.816132 17.859018 49.329416 -177.269074 -2.497020 -177.779545 -12.887816 -15.114820 -8.660512 -1.959726 8.699009 24.661749 -1.788942 7.923458 -2.359814 4.971100 -13.351100 -40.697600 27.529299 9.778643 -4.827055 2.409828 -7.399091 22.975752 5.269451 -20.246344 -15.104720 -0.022900 -0.976100 2.683000 3.224690 2.357881 3.317665 -5.181910 0.906757 -11.745544 14.740157 -3.793526 10.344984 2.895200 -1.498600 3.838800 -89.284803 8.835862 20.293869 28.495133 -28.842010 -8.578243 1.288489 0.881084 9.599563 -7.125000 0.000000 0.000000 86.306106 -7.825974 28.903303 -25.043310 28.484451 -7.700357 1.013864 0.253266 12.717081 7.125000 0.000000 0.000000 
9.815897 17.858313 49.326831 -177.324539 -1.740246 -177.446269 -12.934879 -14.593318 -9.120302 -1.927438 8.780437 24.849934 -1.834646 8.045873 -2.634728 4.876700 -13.243500 -40.287100 27.373274 10.242404 -5.222168 2.371828 -7.527783 23.216556 5.216438 -20.039757 -14.909749 -0.011800 -0.700400 1.924800 3.225295 2.651714 3.206039 -5.146521 1.062694 -11.734248 15.070465 -3.902409 9.973183 3.025600 -1.566800 3.745900 -89.256325 8.889285 20.663229 29.222440 -29.524326 -8.910641 1.277887 0.758904 7.938012 -7.125000 0.000000 0.000000 86.147814 -7.808470 29.009143 -25.251870 28.691794 -7.779792 1.016796 0.235327 12.772119 7.125000 0.000000 0.000000 
9.814370 17.847620 49.317548 -177.322489 -1.904436 -177.485616 -12.953388 -14.590003 -9.176635 -1.885733 8.845767 25.048085 -1.762244 7.883387 -2.747755 4.865100 -13.230300 -40.236600 27.372422 10.007409 -5.393414 2.322296 -7.624776 23.505691 5.126539 -19.852973 -15.220518 -0.009300 -0.624200 1.715400 3.358156 2.461693 3.355188 -5.084191 0.985067 -11.807944 15.005082 -3.964999 9.679773 3.006700 -1.614700 3.681600 -89.277757 8.931867 20.089402 28.537336 -28.868323 -8.588049 1.191070 0.946463 9.594404 -7.125000 0.000000 0.000000 85.884381 -7.651720 29.125929 -25.269287 28.704407 -7.777181 1.020611 0.223100 12.867468 7.125000 0.000000 0.000000 
